<mxfile host="app.diagrams.net" agent="Mozilla/5.0 (Windows NT 10.0; Win64; x64) AppleWebKit/537.36 (KHTML, like Gecko) Chrome/134.0.0.0 Safari/537.36 Edg/134.0.0.0" version="26.2.2">
  <diagram name="第 1 页" id="080Abk7JijwL88Nn-bq8">
    <mxGraphModel dx="1394" dy="570" grid="0" gridSize="10" guides="1" tooltips="1" connect="1" arrows="1" fold="1" page="0" pageScale="1" pageWidth="2336" pageHeight="1654" math="0" shadow="0">
      <root>
        <mxCell id="0" />
        <mxCell id="1" parent="0" />
        <mxCell id="P1yVHLRzYSnZm1j2l89J-3" style="edgeStyle=none;curved=1;rounded=0;orthogonalLoop=1;jettySize=auto;html=1;fontSize=12;startSize=8;endSize=8;" parent="1" edge="1">
          <mxGeometry relative="1" as="geometry">
            <mxPoint x="70.5" y="230" as="targetPoint" />
            <mxPoint x="10.5" y="230" as="sourcePoint" />
          </mxGeometry>
        </mxCell>
        <mxCell id="P1yVHLRzYSnZm1j2l89J-4" value="串/并&lt;div&gt;转换&lt;/div&gt;" style="rounded=1;whiteSpace=wrap;html=1;direction=south;" parent="1" vertex="1">
          <mxGeometry x="78.5" y="169" width="60" height="120" as="geometry" />
        </mxCell>
        <mxCell id="P1yVHLRzYSnZm1j2l89J-5" style="edgeStyle=none;curved=1;rounded=0;orthogonalLoop=1;jettySize=auto;html=1;exitX=1;exitY=0.5;exitDx=0;exitDy=0;fontSize=12;startSize=8;endSize=8;" parent="1" source="P1yVHLRzYSnZm1j2l89J-4" target="P1yVHLRzYSnZm1j2l89J-4" edge="1">
          <mxGeometry relative="1" as="geometry" />
        </mxCell>
        <mxCell id="P1yVHLRzYSnZm1j2l89J-10" style="edgeStyle=none;curved=1;rounded=0;orthogonalLoop=1;jettySize=auto;html=1;exitX=1;exitY=1;exitDx=0;exitDy=0;exitPerimeter=0;fontSize=12;startSize=8;endSize=8;" parent="1" source="P1yVHLRzYSnZm1j2l89J-8" edge="1">
          <mxGeometry relative="1" as="geometry">
            <mxPoint x="208.89996337890625" y="281" as="targetPoint" />
          </mxGeometry>
        </mxCell>
        <mxCell id="P1yVHLRzYSnZm1j2l89J-11" style="edgeStyle=none;curved=1;rounded=0;orthogonalLoop=1;jettySize=auto;html=1;exitX=1;exitY=0;exitDx=0;exitDy=0;exitPerimeter=0;fontSize=12;startSize=8;endSize=8;" parent="1" source="P1yVHLRzYSnZm1j2l89J-8" edge="1">
          <mxGeometry relative="1" as="geometry">
            <mxPoint x="213.699951171875" y="184" as="targetPoint" />
          </mxGeometry>
        </mxCell>
        <mxCell id="P1yVHLRzYSnZm1j2l89J-8" value="" style="strokeWidth=2;html=1;shape=mxgraph.flowchart.annotation_2;align=left;labelPosition=right;pointerEvents=1;" parent="1" vertex="1">
          <mxGeometry x="138.5" y="204" width="58" height="60.5" as="geometry" />
        </mxCell>
        <mxCell id="P1yVHLRzYSnZm1j2l89J-13" value="天线映射" style="rounded=1;whiteSpace=wrap;html=1;" parent="1" vertex="1">
          <mxGeometry x="211.5" y="169" width="120" height="30" as="geometry" />
        </mxCell>
        <mxCell id="P1yVHLRzYSnZm1j2l89J-22" value="星座映射" style="rounded=1;whiteSpace=wrap;html=1;" parent="1" vertex="1">
          <mxGeometry x="211.5" y="268" width="120" height="30" as="geometry" />
        </mxCell>
        <mxCell id="P1yVHLRzYSnZm1j2l89J-25" value="" style="endArrow=none;dashed=1;html=1;rounded=0;fontSize=12;startSize=8;endSize=8;curved=1;" parent="1" edge="1">
          <mxGeometry width="50" height="50" relative="1" as="geometry">
            <mxPoint x="68.5" y="355" as="sourcePoint" />
            <mxPoint x="68.5" y="132" as="targetPoint" />
          </mxGeometry>
        </mxCell>
        <mxCell id="P1yVHLRzYSnZm1j2l89J-27" value="" style="endArrow=none;dashed=1;html=1;rounded=0;fontSize=12;startSize=8;endSize=8;curved=1;" parent="1" edge="1">
          <mxGeometry width="50" height="50" relative="1" as="geometry">
            <mxPoint x="69.5" y="133" as="sourcePoint" />
            <mxPoint x="352.5" y="133" as="targetPoint" />
          </mxGeometry>
        </mxCell>
        <mxCell id="P1yVHLRzYSnZm1j2l89J-28" value="" style="endArrow=none;dashed=1;html=1;rounded=0;fontSize=12;startSize=8;endSize=8;curved=1;" parent="1" source="P1yVHLRzYSnZm1j2l89J-32" edge="1">
          <mxGeometry width="50" height="50" relative="1" as="geometry">
            <mxPoint x="356.5" y="357" as="sourcePoint" />
            <mxPoint x="353.5" y="134" as="targetPoint" />
          </mxGeometry>
        </mxCell>
        <mxCell id="P1yVHLRzYSnZm1j2l89J-29" value="" style="endArrow=none;dashed=1;html=1;rounded=0;fontSize=12;startSize=8;endSize=8;curved=0;" parent="1" edge="1">
          <mxGeometry width="50" height="50" relative="1" as="geometry">
            <mxPoint x="68.5" y="354" as="sourcePoint" />
            <mxPoint x="353.5" y="357" as="targetPoint" />
            <Array as="points" />
          </mxGeometry>
        </mxCell>
        <mxCell id="P1yVHLRzYSnZm1j2l89J-30" value="SM调制" style="text;html=1;align=center;verticalAlign=middle;resizable=0;points=[];autosize=1;strokeColor=none;fillColor=none;fontSize=16;" parent="1" vertex="1">
          <mxGeometry x="164" y="319.5" width="74" height="31" as="geometry" />
        </mxCell>
        <mxCell id="P1yVHLRzYSnZm1j2l89J-31" style="edgeStyle=none;curved=1;rounded=0;orthogonalLoop=1;jettySize=auto;html=1;exitX=0;exitY=0.5;exitDx=0;exitDy=0;fontSize=12;startSize=8;endSize=8;" parent="1" edge="1">
          <mxGeometry relative="1" as="geometry">
            <mxPoint x="-20.000000000003638" y="222" as="sourcePoint" />
            <mxPoint x="-20.000000000003638" y="222" as="targetPoint" />
          </mxGeometry>
        </mxCell>
        <mxCell id="P1yVHLRzYSnZm1j2l89J-33" value="" style="endArrow=none;dashed=1;html=1;rounded=0;fontSize=12;startSize=8;endSize=8;curved=1;" parent="1" target="P1yVHLRzYSnZm1j2l89J-32" edge="1">
          <mxGeometry width="50" height="50" relative="1" as="geometry">
            <mxPoint x="356.5" y="357" as="sourcePoint" />
            <mxPoint x="353.5" y="134" as="targetPoint" />
          </mxGeometry>
        </mxCell>
        <mxCell id="P1yVHLRzYSnZm1j2l89J-34" style="edgeStyle=none;curved=1;rounded=0;orthogonalLoop=1;jettySize=auto;html=1;exitX=0;exitY=0.5;exitDx=0;exitDy=0;exitPerimeter=0;fontSize=12;startSize=8;endSize=8;" parent="1" source="P1yVHLRzYSnZm1j2l89J-32" edge="1">
          <mxGeometry relative="1" as="geometry">
            <mxPoint x="392.10003662109375" y="239" as="targetPoint" />
          </mxGeometry>
        </mxCell>
        <mxCell id="P1yVHLRzYSnZm1j2l89J-32" value="" style="strokeWidth=2;html=1;shape=mxgraph.flowchart.annotation_2;align=left;labelPosition=right;pointerEvents=1;direction=west;" parent="1" vertex="1">
          <mxGeometry x="331.5" y="189" width="52" height="100" as="geometry" />
        </mxCell>
        <mxCell id="P1yVHLRzYSnZm1j2l89J-36" style="edgeStyle=none;curved=1;rounded=0;orthogonalLoop=1;jettySize=auto;html=1;exitX=1;exitY=0;exitDx=0;exitDy=0;exitPerimeter=0;fontSize=12;startSize=8;endSize=8;" parent="1" source="P1yVHLRzYSnZm1j2l89J-35" edge="1">
          <mxGeometry relative="1" as="geometry">
            <mxPoint x="430.5" y="104.79998779296875" as="targetPoint" />
          </mxGeometry>
        </mxCell>
        <mxCell id="P1yVHLRzYSnZm1j2l89J-35" value="" style="strokeWidth=2;html=1;shape=mxgraph.flowchart.annotation_1;align=left;pointerEvents=1;" parent="1" vertex="1">
          <mxGeometry x="394.5" y="136" width="36" height="222" as="geometry" />
        </mxCell>
        <mxCell id="P1yVHLRzYSnZm1j2l89J-37" style="edgeStyle=none;curved=1;rounded=0;orthogonalLoop=1;jettySize=auto;html=1;exitX=1;exitY=1;exitDx=0;exitDy=0;exitPerimeter=0;entryX=1;entryY=0.872;entryDx=0;entryDy=0;entryPerimeter=0;fontSize=12;startSize=8;endSize=8;" parent="1" source="P1yVHLRzYSnZm1j2l89J-35" target="P1yVHLRzYSnZm1j2l89J-35" edge="1">
          <mxGeometry relative="1" as="geometry" />
        </mxCell>
        <mxCell id="P1yVHLRzYSnZm1j2l89J-38" value="" style="triangle;whiteSpace=wrap;html=1;direction=south;fillStyle=hatch;gradientColor=default;" parent="1" vertex="1">
          <mxGeometry x="413.5" y="75" width="35" height="29" as="geometry" />
        </mxCell>
        <mxCell id="P1yVHLRzYSnZm1j2l89J-39" value="" style="triangle;whiteSpace=wrap;html=1;direction=south;" parent="1" vertex="1">
          <mxGeometry x="413.5" y="302" width="35" height="29" as="geometry" />
        </mxCell>
        <mxCell id="P1yVHLRzYSnZm1j2l89J-41" value="x" style="text;html=1;align=center;verticalAlign=middle;resizable=0;points=[];autosize=1;strokeColor=none;fillColor=none;fontSize=16;" parent="1" vertex="1">
          <mxGeometry x="361.5" y="207" width="26" height="31" as="geometry" />
        </mxCell>
        <mxCell id="P1yVHLRzYSnZm1j2l89J-43" value="1" style="text;html=1;align=center;verticalAlign=middle;resizable=0;points=[];autosize=1;strokeColor=none;fillColor=none;fontSize=16;" parent="1" vertex="1">
          <mxGeometry x="394.5" y="102" width="27" height="31" as="geometry" />
        </mxCell>
        <mxCell id="P1yVHLRzYSnZm1j2l89J-44" value="N&lt;span style=&quot;font-size: 13.3333px;&quot;&gt;&lt;sub&gt;t&lt;/sub&gt;&lt;/span&gt;" style="text;html=1;align=center;verticalAlign=middle;resizable=0;points=[];autosize=1;strokeColor=none;fillColor=none;fontSize=16;" parent="1" vertex="1">
          <mxGeometry x="391.5" y="326" width="33" height="34" as="geometry" />
        </mxCell>
        <mxCell id="P1yVHLRzYSnZm1j2l89J-46" value="" style="shape=waypoint;sketch=0;size=6;pointerEvents=1;points=[];fillColor=none;resizable=0;rotatable=0;perimeter=centerPerimeter;snapToPoint=1;" parent="1" vertex="1">
          <mxGeometry x="398" y="162" width="20" height="20" as="geometry" />
        </mxCell>
        <mxCell id="P1yVHLRzYSnZm1j2l89J-47" value="" style="shape=waypoint;sketch=0;size=6;pointerEvents=1;points=[];fillColor=none;resizable=0;rotatable=0;perimeter=centerPerimeter;snapToPoint=1;" parent="1" vertex="1">
          <mxGeometry x="398" y="207" width="20" height="20" as="geometry" />
        </mxCell>
        <mxCell id="P1yVHLRzYSnZm1j2l89J-48" value="" style="shape=waypoint;sketch=0;size=6;pointerEvents=1;points=[];fillColor=none;resizable=0;rotatable=0;perimeter=centerPerimeter;snapToPoint=1;" parent="1" vertex="1">
          <mxGeometry x="398" y="254" width="20" height="20" as="geometry" />
        </mxCell>
        <mxCell id="P1yVHLRzYSnZm1j2l89J-66" style="edgeStyle=none;curved=1;rounded=0;orthogonalLoop=1;jettySize=auto;html=1;exitX=1;exitY=0;exitDx=0;exitDy=0;exitPerimeter=0;fontSize=12;startSize=8;endSize=8;" parent="1" source="P1yVHLRzYSnZm1j2l89J-51" edge="1">
          <mxGeometry relative="1" as="geometry">
            <mxPoint x="606.9444444444443" y="104.22224934895826" as="targetPoint" />
          </mxGeometry>
        </mxCell>
        <mxCell id="P1yVHLRzYSnZm1j2l89J-72" style="edgeStyle=none;curved=1;rounded=0;orthogonalLoop=1;jettySize=auto;html=1;exitX=0;exitY=0.5;exitDx=0;exitDy=0;exitPerimeter=0;fontSize=12;startSize=8;endSize=8;" parent="1" source="P1yVHLRzYSnZm1j2l89J-51" edge="1">
          <mxGeometry relative="1" as="geometry">
            <mxPoint x="674.0555148654512" y="247.1111111111111" as="targetPoint" />
          </mxGeometry>
        </mxCell>
        <mxCell id="P1yVHLRzYSnZm1j2l89J-51" value="" style="strokeWidth=2;html=1;shape=mxgraph.flowchart.annotation_1;align=left;pointerEvents=1;flipH=1;" parent="1" vertex="1">
          <mxGeometry x="606.5" y="136" width="36" height="222" as="geometry" />
        </mxCell>
        <mxCell id="P1yVHLRzYSnZm1j2l89J-52" style="edgeStyle=none;curved=1;rounded=0;orthogonalLoop=1;jettySize=auto;html=1;exitX=1;exitY=1;exitDx=0;exitDy=0;exitPerimeter=0;entryX=1;entryY=0.872;entryDx=0;entryDy=0;entryPerimeter=0;fontSize=12;startSize=8;endSize=8;" parent="1" source="P1yVHLRzYSnZm1j2l89J-51" target="P1yVHLRzYSnZm1j2l89J-51" edge="1">
          <mxGeometry relative="1" as="geometry" />
        </mxCell>
        <mxCell id="P1yVHLRzYSnZm1j2l89J-56" value="N&lt;sub&gt;r&lt;/sub&gt;" style="text;html=1;align=center;verticalAlign=middle;resizable=0;points=[];autosize=1;strokeColor=none;fillColor=none;fontSize=16;flipH=1;" parent="1" vertex="1">
          <mxGeometry x="607.5" y="325" width="34" height="35" as="geometry" />
        </mxCell>
        <mxCell id="P1yVHLRzYSnZm1j2l89J-57" value="" style="shape=waypoint;sketch=0;size=6;pointerEvents=1;points=[];fillColor=none;resizable=0;rotatable=0;perimeter=centerPerimeter;snapToPoint=1;flipH=1;" parent="1" vertex="1">
          <mxGeometry x="610" y="162" width="20" height="20" as="geometry" />
        </mxCell>
        <mxCell id="P1yVHLRzYSnZm1j2l89J-58" value="" style="shape=waypoint;sketch=0;size=6;pointerEvents=1;points=[];fillColor=none;resizable=0;rotatable=0;perimeter=centerPerimeter;snapToPoint=1;flipH=1;" parent="1" vertex="1">
          <mxGeometry x="610" y="207" width="20" height="20" as="geometry" />
        </mxCell>
        <mxCell id="P1yVHLRzYSnZm1j2l89J-59" value="" style="shape=waypoint;sketch=0;size=6;pointerEvents=1;points=[];fillColor=none;resizable=0;rotatable=0;perimeter=centerPerimeter;snapToPoint=1;flipH=1;" parent="1" vertex="1">
          <mxGeometry x="610" y="254" width="20" height="20" as="geometry" />
        </mxCell>
        <mxCell id="P1yVHLRzYSnZm1j2l89J-60" style="edgeStyle=none;curved=1;rounded=0;orthogonalLoop=1;jettySize=auto;html=1;exitX=1;exitY=0.5;exitDx=0;exitDy=0;fontSize=12;startSize=8;endSize=8;" parent="1" edge="1">
          <mxGeometry relative="1" as="geometry">
            <mxPoint x="592.5" y="89.5" as="sourcePoint" />
            <mxPoint x="592.5" y="89.5" as="targetPoint" />
          </mxGeometry>
        </mxCell>
        <mxCell id="P1yVHLRzYSnZm1j2l89J-64" value="&lt;font style=&quot;font-size: 26px;&quot;&gt;H&lt;/font&gt;" style="text;html=1;align=center;verticalAlign=middle;resizable=0;points=[];autosize=1;strokeColor=none;fillColor=none;fontSize=16;" parent="1" vertex="1">
          <mxGeometry x="466.5" y="184" width="37" height="43" as="geometry" />
        </mxCell>
        <mxCell id="P1yVHLRzYSnZm1j2l89J-68" value="" style="triangle;whiteSpace=wrap;html=1;direction=south;fillStyle=hatch;gradientColor=default;" parent="1" vertex="1">
          <mxGeometry x="590.5" y="75" width="35" height="29" as="geometry" />
        </mxCell>
        <mxCell id="P1yVHLRzYSnZm1j2l89J-71" value="" style="triangle;whiteSpace=wrap;html=1;direction=south;fillStyle=hatch;gradientColor=default;" parent="1" vertex="1">
          <mxGeometry x="590.5" y="298" width="35" height="29" as="geometry" />
        </mxCell>
        <mxCell id="P1yVHLRzYSnZm1j2l89J-73" value="y" style="text;html=1;align=center;verticalAlign=middle;resizable=0;points=[];autosize=1;strokeColor=none;fillColor=none;fontSize=16;" parent="1" vertex="1">
          <mxGeometry x="641.5" y="210" width="26" height="31" as="geometry" />
        </mxCell>
        <mxCell id="P1yVHLRzYSnZm1j2l89J-80" style="edgeStyle=none;curved=1;rounded=0;orthogonalLoop=1;jettySize=auto;html=1;exitX=1;exitY=0.5;exitDx=0;exitDy=0;fontSize=12;startSize=8;endSize=8;" parent="1" source="P1yVHLRzYSnZm1j2l89J-77" edge="1">
          <mxGeometry relative="1" as="geometry">
            <mxPoint x="822.5" y="243.77777777777771" as="targetPoint" />
          </mxGeometry>
        </mxCell>
        <mxCell id="P1yVHLRzYSnZm1j2l89J-77" value="信号检测" style="rounded=1;whiteSpace=wrap;html=1;" parent="1" vertex="1">
          <mxGeometry x="675.5" y="214" width="120" height="60" as="geometry" />
        </mxCell>
        <mxCell id="P1yVHLRzYSnZm1j2l89J-81" style="edgeStyle=none;curved=1;rounded=0;orthogonalLoop=1;jettySize=auto;html=1;exitX=0.5;exitY=0;exitDx=0;exitDy=0;fontSize=12;startSize=8;endSize=8;" parent="1" source="P1yVHLRzYSnZm1j2l89J-78" edge="1">
          <mxGeometry relative="1" as="geometry">
            <mxPoint x="946.9444444444443" y="241.55555555555554" as="targetPoint" />
          </mxGeometry>
        </mxCell>
        <mxCell id="P1yVHLRzYSnZm1j2l89J-78" value="串/并&lt;div&gt;转换&lt;/div&gt;" style="rounded=1;whiteSpace=wrap;html=1;direction=south;" parent="1" vertex="1">
          <mxGeometry x="824.5" y="182" width="60" height="120" as="geometry" />
        </mxCell>
        <mxCell id="P1yVHLRzYSnZm1j2l89J-82" value="输出比特" style="text;html=1;align=center;verticalAlign=middle;resizable=0;points=[];autosize=1;strokeColor=none;fillColor=none;fontSize=16;" parent="1" vertex="1">
          <mxGeometry x="875" y="211.5" width="82" height="31" as="geometry" />
        </mxCell>
        <mxCell id="P1yVHLRzYSnZm1j2l89J-83" value="输入比特" style="text;html=1;align=center;verticalAlign=middle;resizable=0;points=[];autosize=1;strokeColor=none;fillColor=none;fontSize=16;" parent="1" vertex="1">
          <mxGeometry x="-17" y="199.5" width="82" height="31" as="geometry" />
        </mxCell>
        <mxCell id="P1yVHLRzYSnZm1j2l89J-84" value="" style="endArrow=none;dashed=1;html=1;rounded=0;fontSize=12;startSize=8;endSize=8;curved=1;" parent="1" edge="1">
          <mxGeometry width="50" height="50" relative="1" as="geometry">
            <mxPoint x="672.5" y="310" as="sourcePoint" />
            <mxPoint x="672.5" y="128" as="targetPoint" />
          </mxGeometry>
        </mxCell>
        <mxCell id="P1yVHLRzYSnZm1j2l89J-85" value="" style="endArrow=none;dashed=1;html=1;dashPattern=1 3;strokeWidth=2;rounded=0;fontSize=12;startSize=8;endSize=8;curved=1;" parent="1" edge="1">
          <mxGeometry width="50" height="50" relative="1" as="geometry">
            <mxPoint x="671.5" y="131" as="sourcePoint" />
            <mxPoint x="892.5" y="131" as="targetPoint" />
          </mxGeometry>
        </mxCell>
        <mxCell id="P1yVHLRzYSnZm1j2l89J-86" value="" style="endArrow=none;dashed=1;html=1;dashPattern=1 3;strokeWidth=2;rounded=0;fontSize=12;startSize=8;endSize=8;curved=1;" parent="1" edge="1">
          <mxGeometry width="50" height="50" relative="1" as="geometry">
            <mxPoint x="895.5" y="310" as="sourcePoint" />
            <mxPoint x="892.5" y="132" as="targetPoint" />
          </mxGeometry>
        </mxCell>
        <mxCell id="P1yVHLRzYSnZm1j2l89J-87" value="" style="endArrow=none;dashed=1;html=1;dashPattern=1 3;strokeWidth=2;rounded=0;fontSize=12;startSize=8;endSize=8;curved=0;" parent="1" edge="1">
          <mxGeometry width="50" height="50" relative="1" as="geometry">
            <mxPoint x="671.5" y="311" as="sourcePoint" />
            <mxPoint x="894.5" y="309" as="targetPoint" />
            <Array as="points" />
          </mxGeometry>
        </mxCell>
        <mxCell id="P1yVHLRzYSnZm1j2l89J-88" value="SM解调" style="text;html=1;align=center;verticalAlign=middle;resizable=0;points=[];autosize=1;strokeColor=none;fillColor=none;fontSize=16;" parent="1" vertex="1">
          <mxGeometry x="695" y="130.5" width="74" height="31" as="geometry" />
        </mxCell>
      </root>
    </mxGraphModel>
  </diagram>
</mxfile>
